<svg xmlns="http://www.w3.org/2000/svg" style="display: none;">
    <!-- Navigation Icons -->
    <symbol id="icon-menu" viewBox="0 0 24 24">
        <path d="M3,6h18c0.6,0,1-0.4,1-1s-0.4-1-1-1H3C2.4,4,2,4.4,2,5S2.4,6,3,6z M21,11H3c-0.6,0-1,0.4-1,1s0.4,1,1,1h18c0.6,0,1-0.4,1-1S21.6,11,21,11z M21,18H3c-0.6,0-1,0.4-1,1s0.4,1,1,1h18c0.6,0,1-0.4,1-1S21.6,18,21,18z"/>
    </symbol>

    <symbol id="icon-close" viewBox="0 0 24 24">
        <path d="M19,6.4L17.6,5L12,10.6L6.4,5L5,6.4l5.6,5.6L5,17.6L6.4,19l5.6-5.6l5.6,5.6l1.4-1.4l-5.6-5.6L19,6.4z"/>
    </symbol>

    <!-- Feature Icons -->
    <symbol id="icon-quality" viewBox="0 0 40 40">
        <path d="M20,4L9,9v11c0,5.6,3.8,10.9,9,12.4c5.2-1.5,9-6.8,9-12.4V9L20,4z M26,20c0,3.9-2.5,7.5-6,9c-3.5-1.5-6-5.1-6-9V11.3l6-3l6,3V20z"/>
        <path d="M18.1,21.9L15,18.8l-2,2L18.1,26l9-9l-2-2L18.1,21.9z"/>
    </symbol>

    <symbol id="icon-innovation" viewBox="0 0 40 40">
        <path d="M29,18c0-4.9-4-9-9-9s-9,4-9,9c0,3.2,1.7,6.2,4.5,7.8V29c0,0.6,0.4,1,1,1h7c0.6,0,1-0.4,1-1v-3.2C27.3,24.2,29,21.2,29,18z M24.5,23.9L24,24.2V27h-8v-2.8l-0.5-0.3C12.9,22.7,12,20.4,12,18c0-4.4,3.6-8,8-8s8,3.6,8,8C28,20.4,27.1,22.7,24.5,23.9z"/>
        <path d="M17,30c-0.6,0-1,0.4-1,1v1c0,0.6,0.4,1,1,1h6c0.6,0,1-0.4,1-1v-1c0-0.6-0.4-1-1-1H17z"/>
        <path d="M16,18c0-1.1,0.9-2,2-2s2,0.9,2,2h1c0-1.7-1.3-3-3-3s-3,1.3-3,3H16z"/>
    </symbol>

    <symbol id="icon-results" viewBox="0 0 40 40">
        <path d="M32,6H8C6.9,6,6,6.9,6,8v24c0,1.1,0.9,2,2,2h24c1.1,0,2-0.9,2-2V8C34,6.9,33.1,6,32,6z M32,32H8V8h24V32z"/>
        <path d="M28,19h-8v-8c0-0.6-0.4-1-1-1s-1,0.4-1,1v8h-8c-0.6,0-1,0.4-1,1s0.4,1,1,1h8v8c0,0.6,0.4,1,1,1s1-0.4,1-1v-8h8c0.6,0,1-0.4,1-1S28.6,19,28,19z"/>
    </symbol>

    <!-- Course Icons -->
    <symbol id="icon-duration" viewBox="0 0 20 20">
        <path d="M10,2c-4.4,0-8,3.6-8,8s3.6,8,8,8s8-3.6,8-8S14.4,2,10,2z M10,16c-3.3,0-6-2.7-6-6s2.7-6,6-6s6,2.7,6,6S13.3,16,10,16z"/>
        <path d="M10.5,5H9v6l5.2,3.2l0.8-1.3l-4.5-2.7V5z"/>
    </symbol>

    <symbol id="icon-level" viewBox="0 0 20 20">
        <path d="M16,6H4C3.4,6,3,6.4,3,7v8c0,0.6,0.4,1,1,1h12c0.6,0,1-0.4,1-1V7C17,6.4,16.6,6,16,6z M7,13H5V9h2V13z M11,13H9V9h2V13z M15,13h-2V9h2V13z"/>
    </symbol>

    <!-- IELTS Skill Icons -->
    <symbol id="icon-listening" viewBox="0 0 24 24">
        <path d="M12,3C7.6,3,4,6.6,4,11v6c0,1.1,0.9,2,2,2h1v-7c0-2.8,2.2-5,5-5s5,2.2,5,5v7h1c1.1,0,2-0.9,2-2v-6C20,6.6,16.4,3,12,3z"/>
        <path d="M9,12c-0.6,0-1,0.4-1,1v5c0,0.6,0.4,1,1,1h6c0.6,0,1-0.4,1-1v-5c0-0.6-0.4-1-1-1H9z"/>
    </symbol>

    <symbol id="icon-reading" viewBox="0 0 24 24">
        <path d="M21,4H3C2.4,4,2,4.4,2,5v14c0,0.6,0.4,1,1,1h18c0.6,0,1-0.4,1-1V5C22,4.4,21.6,4,21,4z M20,18H4V6h16V18z"/>
        <path d="M7,9h10c0.6,0,1-0.4,1-1s-0.4-1-1-1H7C6.4,7,6,7.4,6,8S6.4,9,7,9z"/>
        <path d="M7,12h10c0.6,0,1-0.4,1-1s-0.4-1-1-1H7c-0.6,0-1,0.4-1,1S6.4,12,7,12z"/>
        <path d="M7,15h7c0.6,0,1-0.4,1-1s-0.4-1-1-1H7c-0.6,0-1,0.4-1,1S6.4,15,7,15z"/>
    </symbol>

    <symbol id="icon-writing" viewBox="0 0 24 24">
        <path d="M20.7,5.3l-2-2c-0.4-0.4-1-0.4-1.4,0l-1,1l3.4,3.4l1-1C21.1,6.3,21.1,5.7,20.7,5.3z"/>
        <path d="M15.3,5.3L8,12.6V16h3.4l7.3-7.3L15.3,5.3z"/>
        <path d="M19,19H5V5h7V3H5C3.9,3,3,3.9,3,5v14c0,1.1,0.9,2,2,2h14c1.1,0,2-0.9,2-2v-7h-2V19z"/>
    </symbol>

    <symbol id="icon-speaking" viewBox="0 0 24 24">
        <path d="M12,3C7.6,3,4,6.6,4,11v6c0,1.1,0.9,2,2,2h12c1.1,0,2-0.9,2-2v-6C20,6.6,16.4,3,12,3z M18,17H6v-6c0-3.3,2.7-6,6-6s6,2.7,6,6V17z"/>
        <path d="M12,8c-1.7,0-3,1.3-3,3v3c0,1.7,1.3,3,3,3s3-1.3,3-3v-3C15,9.3,13.7,8,12,8z M13,14c0,0.6-0.4,1-1,1s-1-0.4-1-1v-3c0-0.6,0.4-1,1-1s1,0.4,1,1V14z"/>
    </symbol>

    <!-- Social Media Icons -->
    <symbol id="icon-instagram" viewBox="0 0 24 24">
        <path d="M12,2.2c3.2,0,3.6,0,4.9,0.1c3.3,0.1,4.8,1.7,4.9,4.9c0.1,1.3,0.1,1.6,0.1,4.8c0,3.2,0,3.6-0.1,4.8c-0.1,3.2-1.7,4.8-4.9,4.9c-1.3,0.1-1.6,0.1-4.9,0.1c-3.2,0-3.6,0-4.8-0.1c-3.3-0.1-4.8-1.7-4.9-4.9c-0.1-1.3-0.1-1.6-0.1-4.8c0-3.2,0-3.6,0.1-4.8c0.1-3.2,1.7-4.8,4.9-4.9C8.4,2.2,8.8,2.2,12,2.2z M12,0C8.7,0,8.3,0,7.1,0.1c-4.4,0.2-6.8,2.6-7,7C0,8.3,0,8.7,0,12s0,3.7,0.1,4.9c0.2,4.4,2.6,6.8,7,7C8.3,24,8.7,24,12,24s3.7,0,4.9-0.1c4.4-0.2,6.8-2.6,7-7C24,15.7,24,15.3,24,12s0-3.7-0.1-4.9c-0.2-4.4-2.6-6.8-7-7C15.7,0,15.3,0,12,0z M12,5.8c-3.4,0-6.2,2.8-6.2,6.2s2.8,6.2,6.2,6.2s6.2-2.8,6.2-6.2S15.4,5.8,12,5.8z M12,16c-2.2,0-4-1.8-4-4s1.8-4,4-4s4,1.8,4,4S14.2,16,12,16z M18.4,4.2c-0.8,0-1.4,0.6-1.4,1.4S17.6,7,18.4,7c0.8,0,1.4-0.6,1.4-1.4S19.2,4.2,18.4,4.2z"/>
    </symbol>

    <symbol id="icon-whatsapp" viewBox="0 0 24 24">
        <path d="M12,2C6.5,2,2,6.5,2,12c0,1.8,0.5,3.5,1.3,5l-1.2,4.5l4.6-1.2c1.4,0.8,3.1,1.2,4.8,1.2c5.5,0,10-4.5,10-10S17.5,2,12,2z M12,20c-1.6,0-3.1-0.5-4.3-1.3l-0.3-0.2l-3.1,0.8l0.8-3l-0.2-0.3C3.6,14.8,3,13.4,3,12c0-5,4-9,9-9s9,4,9,9S17,20,12,20z M17,14.3c-0.2-0.1-1.3-0.7-1.5-0.8c-0.2-0.1-0.4-0.1-0.5,0.1c-0.2,0.2-0.6,0.8-0.8,0.9c-0.1,0.2-0.3,0.2-0.5,0.1c-1.3-0.7-2.3-1.2-3.3-2.8c-0.2-0.4,0.3-0.4,0.8-1.2c0.1-0.2,0-0.3-0.1-0.5c-0.1-0.1-0.5-1.3-0.7-1.7c-0.2-0.5-0.4-0.4-0.5-0.4h-0.5c-0.2,0-0.4,0.1-0.7,0.3c-0.7,0.7-1.1,1.4-1.1,2.4c0.1,1.3,0.9,2.5,1,2.7c0.1,0.1,1.9,3,4.7,4.2c2.8,1.2,2.8,0.8,3.3,0.7c0.5-0.1,1.3-0.5,1.5-1.1C17.2,14.8,17.2,14.5,17,14.3z"/>
    </symbol>

    <symbol id="icon-facebook" viewBox="0 0 24 24">
        <path d="M22,12c0-5.5-4.5-10-10-10S2,6.5,2,12c0,5,3.7,9.1,8.4,9.9v-7H7.9V12h2.5V9.8c0-2.5,1.5-3.9,3.8-3.9c1.1,0,2.2,0.2,2.2,0.2v2.5h-1.3c-1.2,0-1.6,0.8-1.6,1.6V12h2.8l-0.4,2.9h-2.3v7C18.3,21.1,22,17,22,12z"/>
    </symbol>

    <!-- Free Trial Icons -->
    <symbol id="icon-general-english" viewBox="0 0 24 24">
        <path d="M21,4H3C1.9,4,1,4.9,1,6v12c0,1.1,0.9,2,2,2h18c1.1,0,2-0.9,2-2V6C23,4.9,22.1,4,21,4z M21,18H3V6h18V18z"/>
        <path d="M10,9H6c-0.6,0-1,0.4-1,1s0.4,1,1,1h4c0.6,0,1-0.4,1-1S10.6,9,10,9z"/>
        <path d="M18,13H6c-0.6,0-1,0.4-1,1s0.4,1,1,1h12c0.6,0,1-0.4,1-1S18.6,13,18,13z"/>
    </symbol>

    <symbol id="icon-test" viewBox="0 0 24 24">
        <path d="M19,3h-4.2c-0.4-1.2-1.5-2-2.8-2S9.6,1.8,9.2,3H5C3.9,3,3,3.9,3,5v14c0,1.1,0.9,2,2,2h14c1.1,0,2-0.9,2-2V5C21,3.9,20.1,3,19,3z M12,3c0.6,0,1,0.4,1,1s-0.4,1-1,1s-1-0.4-1-1S11.4,3,12,3z M12,7c2.8,0,5,2.2,5,5s-2.2,5-5,5s-5-2.2-5-5S9.2,7,12,7z"/>
        <path d="M12,9c-1.7,0-3,1.3-3,3s1.3,3,3,3s3-1.3,3-3S13.7,9,12,9z M12,13c-0.6,0-1-0.4-1-1s0.4-1,1-1s1,0.4,1,1S12.6,13,12,13z"/>
    </symbol>

    <symbol id="icon-ielts" viewBox="0 0 24 24">
        <path d="M21,5h-2v14h2V5z"/>
        <path d="M17,5H5C3.9,5,3,5.9,3,7v10c0,1.1,0.9,2,2,2h12c1.1,0,2-0.9,2-2V7C19,5.9,18.1,5,17,5z M9,16H7v-2h2V16z M9,13H7v-2h2V13z M9,10H7V8h2V10z M13,16h-2v-2h2V16z M13,13h-2v-2h2V13z M13,10h-2V8h2V10z"/>
    </symbol>

    <!-- Arrow Icons -->
    <symbol id="icon-arrow-right" viewBox="0 0 20 20">
        <path d="M10,3l7,7l-7,7" stroke="currentColor" stroke-width="2" fill="none" stroke-linecap="round" stroke-linejoin="round"/>
        <path d="M3,10h14" stroke="currentColor" stroke-width="2" fill="none" stroke-linecap="round" stroke-linejoin="round"/>
    </symbol>

    <!-- Contact Icons -->
    <symbol id="icon-location" viewBox="0 0 24 24">
        <path d="M12,2C8.1,2,5,5.1,5,9c0,5.2,7,13,7,13s7-7.8,7-13C19,5.1,15.9,2,12,2z M12,11.5c-1.4,0-2.5-1.1-2.5-2.5s1.1-2.5,2.5-2.5s2.5,1.1,2.5,2.5S13.4,11.5,12,11.5z"/>
    </symbol>

    <symbol id="icon-phone" viewBox="0 0 24 24">
        <path d="M20,15.5c-1.2,0-2.4-0.2-3.6-0.6c-0.3-0.1-0.7,0-1,0.2l-2.2,2.2c-2.8-1.4-5.1-3.8-6.6-6.6l2.2-2.2c0.3-0.3,0.4-0.7,0.2-1C8.7,6.4,8.5,5.2,8.5,4c0-0.6-0.4-1-1-1H4C3.4,3,3,3.4,3,4c0,9.4,7.6,17,17,17c0.6,0,1-0.4,1-1v-3.5C21,15.9,20.6,15.5,20,15.5z"/>
    </symbol>

    <symbol id="icon-email" viewBox="0 0 24 24">
        <path d="M20,4H4C2.9,4,2,4.9,2,6v12c0,1.1,0.9,2,2,2h16c1.1,0,2-0.9,2-2V6C22,4.9,21.1,4,20,4z M20,8l-8,5l-8-5V6l8,5l8-5V8z"/>
    </symbol>
</svg>